<svg id="Capa_1" enable-background="new 0 0 512 512" height="512" viewBox="0 0 512 512" width="512" xmlns="http://www.w3.org/2000/svg"><g><g><g><g><path d="m497 512h-280.158c-4.085 0-7.993-1.666-10.821-4.612-2.829-2.947-4.333-6.92-4.166-11.001.688-16.825 3.764-33.73 9.14-50.245 1.615-4.964 2.435-10.046 2.435-15.106v-.69c0-22.873-14.603-42.918-36.336-49.879-20.991-6.724-35.094-25.842-35.094-47.572v-58.275c0-8.284 6.716-15 15-15h30.452l44.459-35.566c9.714-7.774 21.916-12.054 34.359-12.054h61.254c20.337 0 39.472 9.925 51.187 26.548s14.624 37.98 7.784 57.132l-13.312 37.272c15.118 43.178 53.714 73.436 99.599 77.606l25.577 2.325c7.726.702 13.642 7.181 13.642 14.938v69.179c-.001 8.284-6.717 15-15.001 15zm-263.715-30h248.715v-40.479l-11.935-1.085c-29.157-2.65-56.577-13.814-79.294-32.284-15.979-12.991-28.893-28.996-38.122-47.094-5.299 2.856-11.317 4.49-17.678 4.627-16.24.305-30.676-9.148-36.787-24.194l-15.201-37.416c-3.117-7.675.577-16.425 8.252-19.543 7.673-3.118 16.425.576 19.543 8.252l15.2 37.416c2.062 5.074 6.526 5.548 8.351 5.491 1.824-.039 6.266-.687 8.107-5.844l15.806-44.257c3.616-10.125 2.139-20.973-4.055-29.761-6.193-8.789-15.912-13.829-26.664-13.829h-61.253c-5.655 0-11.202 1.945-15.617 5.479l-48.568 38.854c-2.659 2.128-5.964 3.287-9.37 3.287h-20.715v43.275c0 8.637 5.724 16.272 14.243 19.001 34.204 10.955 57.186 42.481 57.186 78.449v.69c0 8.218-1.314 16.424-3.907 24.391-2.858 8.777-4.943 17.669-6.237 26.574z"/></g></g></g><g><path d="m260.94 154.64-68.668-39.646 68.668-39.646c7.103-4.101 9.536-13.183 5.436-20.285-4.102-7.104-13.186-9.537-20.285-5.436l-83.518 48.219-63.809-36.84c.8-3.543 1.236-7.224 1.236-11.006 0-27.57-22.43-50-50-50s-50 22.43-50 50 22.43 50 50 50c13.069 0 24.977-5.046 33.895-13.284l48.979 28.278-48.979 28.278c-8.917-8.238-20.826-13.284-33.895-13.284-27.57 0-50 22.43-50 50s22.43 50 50 50 50-22.43 50-50c0-3.782-.436-7.463-1.236-11.007l63.809-36.84 83.518 48.219c2.339 1.351 4.892 1.992 7.411 1.992 5.132 0 10.124-2.664 12.874-7.428 4.101-7.102 1.667-16.184-5.436-20.284zm-210.94-84.64c-11.028 0-20-8.972-20-20s8.972-20 20-20 20 8.972 20 20-8.972 20-20 20zm0 129.988c-11.028 0-20-8.972-20-20s8.972-20 20-20 20 8.972 20 20-8.972 20-20 20z"/></g></g></svg>