<svg id="Capa_1" enable-background="new 0 0 512 512" height="512" viewBox="0 0 512 512" width="512" xmlns="http://www.w3.org/2000/svg"><g><path d="m316 83c-6.68 0-13.019 1.474-18.725 4.097-6.936-15.929-22.822-27.097-41.275-27.097s-34.339 11.168-41.275 27.097c-5.706-2.623-12.045-4.097-18.725-4.097-24.813 0-45 20.187-45 45 0 20.933 14.367 38.573 33.758 43.578-2.431 7.374-3.758 15.245-3.758 23.422 0 26.363 13.841 39.364 25.451 45.628 11.852 6.394 27.597 9.372 49.549 9.372s37.697-2.978 49.549-9.372c11.61-6.264 25.451-19.265 25.451-45.628 0-8.178-1.322-16.05-3.756-23.422 19.39-5.006 33.756-22.646 33.756-43.578 0-24.813-20.187-45-45-45zm-60 7c8.271 0 15 6.729 15 15s-6.729 15-15 15-15-6.729-15-15 6.729-15 15-15zm-60 23c8.271 0 15 6.729 15 15s-6.729 15-15 15-15-6.729-15-15 6.729-15 15-15zm60 107c-41.559 0-45-11.826-45-25 0-24.813 20.187-45 45-45s45 20.187 45 45c0 13.174-3.441 25-45 25zm60-77c-8.271 0-15-6.729-15-15s6.729-15 15-15 15 6.729 15 15-6.729 15-15 15z"/><path d="m226 422c-8.284 0-15 6.716-15 15s6.716 15 15 15h60c8.284 0 15-6.716 15-15s-6.716-15-15-15z"/><path d="m512 145c0-46.869-38.131-85-85-85h-16v-30h5c8.284 0 15-6.716 15-15s-6.716-15-15-15h-320c-8.284 0-15 6.716-15 15s6.716 15 15 15h5v30h-16c-46.869 0-85 38.131-85 85 0 37.495 24.414 69.376 58.173 80.637-18.548 17.349-30.161 42.023-30.161 69.363 0 8.284 6.716 15 15 15s15-6.716 15-15c0-32.291 23.672-59.147 54.571-64.152 16.571 42.331 49.911 76.918 93.417 94.594v36.558h-10c-24.813 0-45 20.187-45 45v75h-25c-8.284 0-15 6.716-15 15s6.716 15 15 15h260c8.284 0 15-6.716 15-15s-6.716-15-15-15h-25v-75c0-24.813-20.187-45-45-45h-10v-36.558c43.506-17.677 76.845-52.263 93.417-94.594 30.899 5.006 54.571 31.862 54.571 64.152 0 8.284 6.716 15 15 15s15-6.716 15-15c0-27.34-11.613-52.014-30.16-69.363 33.758-11.261 58.172-43.142 58.172-80.637zm-482 0c0-30.327 24.673-55 55-55h16v79.32c0 10.433.961 20.691 2.8 30.68h-18.8c-30.327 0-55-24.673-55-55zm301 262v75h-150v-75c0-8.271 6.729-15 15-15h120c8.271 0 15 6.729 15 15zm-44.744-106.23c-6.125 2.042-10.256 7.773-10.256 14.23v47h-40v-47c0-6.457-4.131-12.188-10.256-14.23-56.669-18.89-94.744-71.715-94.744-131.45v-139.32h250v139.32c0 13.834-2.066 27.288-5.908 40.046-.342.842-.617 1.719-.802 2.63-13.286 41.128-45.392 74.56-88.034 88.774zm140.744-100.77h-18.8c1.839-9.989 2.8-20.247 2.8-30.68v-79.32h16c30.327 0 55 24.673 55 55s-24.673 55-55 55z"/></g></svg>