<svg id="Capa_1" enable-background="new 0 0 512 512" height="512" viewBox="0 0 512 512" width="512" xmlns="http://www.w3.org/2000/svg"><g><path d="m490.774 102.465c-16.18-16.18-38.87-23.376-60.897-20.376 3.004-22.026-4.195-44.717-20.376-60.897-28.256-28.255-74.232-28.256-102.488 0-27.069 27.069-28.207 70.399-3.412 98.835l-183.574 183.574c-28.435-24.796-71.766-23.658-98.835 3.412-28.255 28.257-28.255 74.232 0 102.488 16.18 16.181 38.872 23.379 60.897 20.376-3.003 22.026 4.196 44.717 20.376 60.897 13.687 13.688 31.886 21.226 51.244 21.226 19.357 0 37.556-7.538 51.243-21.226 13.688-13.688 21.227-31.887 21.227-51.244 0-17.683-6.29-34.398-17.813-47.592l49.357-49.357 72.561 72.561c2.865 2.865 6.701 4.394 10.61 4.394 1.789 0 3.594-.32 5.328-.98 5.522-2.099 9.297-7.244 9.644-13.141l2.753-46.797 46.797-2.753c5.897-.347 11.042-4.122 13.141-9.644 2.099-5.521.762-11.761-3.415-15.938l-72.561-72.561 49.357-49.357c13.193 11.522 29.91 17.813 47.592 17.813 19.357 0 37.556-7.539 51.244-21.227 13.688-13.687 21.226-31.886 21.226-51.242 0-19.358-7.538-37.557-21.226-51.244zm-236.53 109.349 45.908 45.908-42.429 42.429-45.908-45.908zm-77.581 169.398c-5.858 5.858-5.858 15.356 0 21.214l7.075 7.075c8.021 8.021 12.439 18.685 12.439 30.029s-4.418 22.008-12.439 30.029c-16.558 16.558-43.499 16.558-60.058 0-12.579-12.579-15.841-31.945-8.117-48.19 2.725-5.732 1.548-12.559-2.94-17.048l-4.977-4.977c-2.878-2.878-6.716-4.395-10.612-4.395-2.181 0-4.38.476-6.438 1.454-16.244 7.723-35.611 4.462-48.19-8.117-16.558-16.558-16.558-43.5 0-60.059 16.559-16.557 43.5-16.558 60.059 0l7.075 7.075c5.858 5.859 15.356 5.859 21.214 0l59.845-59.845 45.909 45.909zm193.644-53.335-26.761 1.574c-7.591.447-13.647 6.503-14.094 14.094l-1.574 26.761-48.94-48.94 42.429-42.429zm99.252-144.14c-8.021 8.021-18.685 12.439-30.029 12.439s-22.008-4.417-30.029-12.439l-7.075-7.075c-5.858-5.859-15.357-5.859-21.214 0l-59.846 59.846-45.909-45.909 59.845-59.845c5.858-5.858 5.858-15.356 0-21.214l-7.075-7.075c-16.558-16.558-16.558-43.5 0-60.058 16.559-16.559 43.502-16.558 60.059 0 12.579 12.579 15.841 31.945 8.117 48.19-2.726 5.733-1.548 12.56 2.94 17.049l4.977 4.977c4.489 4.489 11.316 5.667 17.049 2.94 16.242-7.724 35.61-4.463 48.19 8.117 16.558 16.557 16.558 43.499 0 60.057z"/></g></svg>