<?xml version="1.0" encoding="iso-8859-1"?>
<!-- Generator: Adobe Illustrator 19.0.0, SVG Export Plug-In . SVG Version: 6.00 Build 0)  -->
<svg version="1.1" id="Layer_1" xmlns="http://www.w3.org/2000/svg" xmlns:xlink="http://www.w3.org/1999/xlink" x="0px" y="0px"
	 viewBox="0 0 496 496" style="enable-background:new 0 0 496 496;" xml:space="preserve">
<g>
	<g>
		<g>
			<path d="M496,180.744v-65.768L257.824,0h-19.656L0,114.984v65.768l16-7.728V496h224h8h248v-35.16c0-19.6-5.56-38.576-16-55.096
				v-232.72L496,180.744z M152,400h-16v16h16v64H32v-64h88v-16H32v-64h120V400z M32,320v-64h163.048
				c-21.672,14.392-37.104,37.352-41.6,64H32z M42.976,160l132.568-64h144.912l132.568,64H360v16h104v64h-16v16h16v64H342.552
				c-4.496-26.648-19.936-49.608-41.608-64H432v-16H32v-64h104v-16H42.976z M208.688,80l33.144-16h12.336l33.144,16H208.688z
				 M408,352h-64v-16h120v64h-0.64C459.456,372.904,436.152,352,408,352z M447.192,400H336h-47.192c3.72-18.232,19.872-32,39.192-32
				h80C427.312,368,443.472,381.768,447.192,400z M240,460.84V480h-72V336c0-44.112,35.888-80,80-80s80,35.888,80,80v16
				c-28.152,0-51.456,20.904-55.36,48h-12.92l-2.376,3.56C246,420.576,240,440.384,240,460.84z M480,480H368H256v-19.16
				c0-15.88,4.272-31.296,12.4-44.84H336h32h96h3.6c8.128,13.552,12.4,28.968,12.4,44.84V480z M257.824,48h-19.656L16,155.256
				v-30.24L241.832,16h12.336L480,125.016v30.232L257.824,48z"/>
			<path d="M152,184c0,17.648,14.352,32,32,32c14.88,0,27.424-10.216,30.992-24h66.024c3.56,13.784,16.104,24,30.992,24
				c17.648,0,32-14.352,32-32c0-5.64-1.52-11.144-4.36-16c2.832-4.856,4.352-10.36,4.352-16c0-17.648-14.352-32-32-32
				c-14.88,0-27.424,10.216-30.992,24h-66.024c-3.56-13.784-16.104-24-30.992-24c-17.648,0-32,14.352-32,32
				c0,5.64,1.52,11.144,4.36,16C153.52,172.856,152,178.36,152,184z M172.176,162.648c-1.904-2.12-4.176-5.68-4.176-10.648
				c0-8.824,7.176-16,16-16c8.824,0,16,7.176,16,16v8h96v-8c0-8.824,7.176-16,16-16c8.824,0,16,7.176,16,16
				c0,4.968-2.272,8.528-4.168,10.648L319.008,168l4.824,5.352c1.896,2.12,4.168,5.68,4.168,10.648c0,8.824-7.176,16-16,16
				c-8.824,0-16-7.176-16-16v-8h-96v8c0,8.824-7.176,16-16,16c-8.824,0-16-7.176-16-16c0-4.968,2.272-8.528,4.168-10.648
				l4.824-5.352L172.176,162.648z"/>
			<path d="M400,448c0-17.648-14.352-32-32-32s-32,14.352-32,32s14.352,32,32,32S400,465.648,400,448z M368,464
				c-8.824,0-16-7.176-16-16c0-8.824,7.176-16,16-16c8.824,0,16,7.176,16,16C384,456.824,376.824,464,368,464z"/>
		</g>
	</g>
</g>
<g>
</g>
<g>
</g>
<g>
</g>
<g>
</g>
<g>
</g>
<g>
</g>
<g>
</g>
<g>
</g>
<g>
</g>
<g>
</g>
<g>
</g>
<g>
</g>
<g>
</g>
<g>
</g>
<g>
</g>
</svg>
