<svg height="512" viewBox="0 0 60 60" width="512" xmlns="http://www.w3.org/2000/svg"><g id="Page-1" fill="none" fill-rule="evenodd"><g id="040---Pet-First-Aid" fill="rgb(0,0,0)" fill-rule="nonzero"><path id="Shape" d="m60 19c-.0033061-2.7600532-2.2399468-4.9966939-5-5h-11v-2c-.002145-.7113268-.3832487-1.3675874-1-1.722v-3.278c-.0044086-3.86416566-3.1358343-6.99559136-7-7h-12c-3.8641657.00440864-6.9955914 3.13583434-7 7v3.278c-.6167513.3544126-.997855 1.0106732-1 1.722v2h-11c-2.76005315.0033061-4.99669388 2.2399468-5 5v36c.00330612 2.7600532 2.23994685 4.9966939 5 5h50c2.7600532-.0033061 4.9966939-2.2399468 5-5zm-36-5v-2c-.002145-.7113268-.3832487-1.3675874-1-1.722v-3.278c0-.55228475.4477153-1 1-1h12c.5522847 0 1 .44771525 1 1v3.278c-.6167513.3544126-.997855 1.0106732-1 1.722v2zm14-2h4v2h-4zm-14-10h12c2.7600532.00330612 4.9966939 2.23994685 5 5v3h-2v-3c0-1.65685425-1.3431458-3-3-3h-12c-1.6568542 0-3 1.34314575-3 3v3h-2v-3c.0033061-2.76005315 2.2399468-4.99669388 5-5zm-6 10h4v2h-4zm37 46h-50c-1.65685425 0-3-1.3431458-3-3v-36c0-1.6568542 1.34314575-3 3-3h50c1.6568542 0 3 1.3431458 3 3v36c0 1.6568542-1.3431458 3-3 3z"/><path id="Shape" d="m22.892 35.921c-.4941262-2.0112372-2.5139807-3.2509669-4.531-2.781-1.928246.7562809-2.8890907 2.9231973-2.155 4.86.2880274.962895.9035088 1.7948562 1.74 2.352.5506123.3671207 1.1962492.5658851 1.858.572.3157236-.0000466.6296183-.0479231.931-.142 1.9279598-.7554849 2.8895656-2.9212156 2.157-4.858zm-2.75 2.949c-.3809366.1034214-.7881892.0299764-1.109-.2-.4418111-.3043465-.765569-.7513229-.917-1.266-.3826102-.8835077-.0160453-1.9124235.839-2.355.1059356-.0325969.2161627-.0491141.327-.049.8273696.0998329 1.5053905.7036703 1.7 1.514.3841429.8840003.0167584 1.9144264-.84 2.356z"/><path id="Shape" d="m41.639 33.14c-2.0172066-.4711228-4.0378197.7690724-4.531 2.781-.7325656 1.9367844.2290402 4.1025151 2.157 4.858.3013817.0940769.6152764.1419534.931.142.6617508-.0061149 1.3073877-.2048793 1.858-.572.8359325-.556394 1.4513518-1.3872102 1.74-2.349.7340907-1.9368027-.226754-4.1037191-2.155-4.86zm.245 4.265c-.151431.5146771-.4751889.9616535-.917 1.266-.3208108.2299764-.7280634.3034214-1.109.2-.855841-.4418815-1.2226661-1.4715276-.839-2.355.322-1.036 1.257-1.7 2.026-1.465.8545086.4425341 1.220984 1.4707618.839 2.354z"/><path id="Shape" d="m43 29h-3.961c.083559-.9975069-.1026053-1.9991328-.539-2.9-.1389104-.2724118-.3065284-.5292025-.5-.766v-1.334c-.0033074-3.3123376-2.6876624-5.9966926-6-6h-4c-3.3123376.0033074-5.9966926 2.6876624-6 6v1.38c-.1775111.2224985-.3325982.4619958-.463.715-.437068.9023947-.6225864 1.9059907-.537 2.905h-4c-3.3123376.0033074-5.9966926 2.6876624-6 6v4c.0033074 3.3123376 2.6876624 5.9966926 6 6h4.014c.0092018.6047404.1362391 1.2018836.374 1.758.1545208.3480649.3608601.6707229.612.957v2.285c.0033074 3.3123376 2.6876624 5.9966926 6 6h4c3.3123376-.0033074 5.9966926-2.6876624 6-6v-2.285c.2511399-.2862771.4574792-.6089351.612-.957.2377609-.5561164.3647982-1.1532596.374-1.758h4.014c3.3123376-.0033074 5.9966926-2.6876624 6-6v-4c-.0033074-3.3123376-2.6876624-5.9966926-6-6zm-9.937-.366c.259-1.492 1.263-2.634 2.263-2.634.07408-.0001294.1480291.0062282.221.019.5206366.1311072.952075.4943267 1.17.985.3364408.7212914.4372061 1.5302128.288 2.312-.277 1.6-1.407 2.8-2.482 2.615-.5212639-.1304979-.9530599-.4943876-1.17-.986-.3381661-.720415-.4396789-1.5293668-.29-2.311zm-7.55 3.3c-1.064.182-2.205-1.012-2.484-2.615-.1509627-.7841236-.0497955-1.5959113.289-2.319.2175559-.4909506.6491531-.8543037 1.17-.985.07264-.0127289.1462532-.0190865.22-.019 1 0 2 1.142 2.263 2.634.277 1.606-.391 3.116-1.458 3.301zm11.275 14.004c-.3676039.7364467-1.1589732 1.1617676-1.976 1.062-.7093953-.0254731-1.4071854-.1877815-2.055-.478-.8718671-.3754264-1.8079676-.579148-2.757-.6-.9490324.020852-1.8851329.2245736-2.757.6-.6478146.2902185-1.3456047.4525269-2.055.478-.8170268.0997676-1.6083961-.3255533-1.976-1.062-.4322012-1.3102859-.1266428-2.7517574.8-3.774.6251709-.7606615 1.1766494-1.5790059 1.647-2.444 1.124-1.913 2.187-3.72 4.341-3.72s3.217 1.807 4.341 3.72c.4703506.8649941 1.0218291 1.6833385 1.647 2.444.9266428 1.0222426 1.2322012 2.4637141.8 3.774zm-4.788 8.062h-4c-2.209139 0-4-1.790861-4-4v-1.134c.3895807.0899037.7881813.1348637 1.188.134.9489761-.0213255 1.8849873-.2250276 2.757-.6.647387-.2921805 1.3452387-.4562011 2.055-.483.7094286.0252224 1.4072662.1875418 2.055.478.8720127.3749724 1.8080239.5786745 2.757.6.3996266.0025037.7982248-.0407784 1.188-.129v1.134c0 2.209139-1.790861 4-4 4zm15-15c0 2.209139-1.790861 4-4 4h-4.3c-.2532713-.7978782-.6689969-1.5346761-1.221-2.164-.5376214-.6644043-1.0126442-1.3771059-1.419-2.129-1.227-2.097-2.76-4.707-6.06-4.707s-4.833 2.61-6.065 4.707c-.4063558.7518941-.8813786 1.4645957-1.419 2.129-.5502124.6297693-.9642181 1.366536-1.216 2.164h-4.3c-2.209139 0-4-1.790861-4-4v-4c0-2.209139 1.790861-4 4-4h4.469c.57882 1.6560102 2.0820169 2.8131305 3.831 2.949.1846728.0001185.3690153-.0156058.551-.047 2.172-.377 3.558-2.893 3.087-5.609s-2.618-4.621-4.795-4.245c-.05.009-.1.034-.146.046v-.094c0-2.209139 1.790861-4 4-4h4c2.209139 0 4 1.790861 4 4v.083c-.039-.008-.073-.028-.112-.035-2.182-.377-4.325 1.529-4.795 4.245-.2267083 1.2078725-.0591322 2.4566305.478 3.562.4983129 1.0571637 1.4679808 1.8157601 2.614 2.045.181643.0314351.365657.04716.55.047 1.7492263-.1347807 3.2532489-1.2911476 3.833-2.947h4.435c2.209139 0 4 1.790861 4 4z"/><path id="Shape" d="m5 22c.55228475 0 1-.4477153 1-1v-2c0-.5522847-.44771525-1-1-1s-1 .4477153-1 1v2c0 .5522847.44771525 1 1 1z"/><path id="Shape" d="m6 25c0-.5522847-.44771525-1-1-1s-1 .4477153-1 1v24c0 .5522847.44771525 1 1 1s1-.4477153 1-1z"/><path id="Shape" d="m5 52c-.55228475 0-1 .4477153-1 1v2c0 .5522847.44771525 1 1 1s1-.4477153 1-1v-2c0-.5522847-.44771525-1-1-1z"/><path id="Shape" d="m55 22c.5522847 0 1-.4477153 1-1v-2c0-.5522847-.4477153-1-1-1s-1 .4477153-1 1v2c0 .5522847.4477153 1 1 1z"/><path id="Shape" d="m56 25c0-.5522847-.4477153-1-1-1s-1 .4477153-1 1v24c0 .5522847.4477153 1 1 1s1-.4477153 1-1z"/><path id="Shape" d="m55 52c-.5522847 0-1 .4477153-1 1v2c0 .5522847.4477153 1 1 1s1-.4477153 1-1v-2c0-.5522847-.4477153-1-1-1z"/></g></g></svg>